<?xml version="1.0" encoding="UTF-8"?>
<svg id="Ebene_2" data-name="Ebene 2" xmlns="http://www.w3.org/2000/svg" viewBox="0 0 44 44">
  <defs>
    <style>
      .cls-1 {
        fill: #f1916d;
      }
    </style>
  </defs>
  <g id="Layer_1" data-name="Layer 1">
    <path class="cls-1" d="M31,44H5c-2.76,0-5-2.24-5-5V13c0-2.76,2.24-5,5-5h13c.55,0,1,.45,1,1v5.16c.32-.11.66-.16,1-.16,2.07.15,3.63,1.93,3.5,4,.13,2.07-1.43,3.85-3.5,4-.34,0-.68-.06-1-.17v3.17h3.97c.56,0,1.08.31,1.33.81.26.48.22,1.07-.09,1.52-.14.2-.22.43-.22.67,0,.81.92,1.5,2,1.5s2-.69,2-1.5c0-.24-.08-.48-.22-.67-.31-.45-.34-1.04-.09-1.52.26-.5.77-.81,1.33-.81h5.97c.55,0,1,.45,1,1v13c0,2.76-2.24,5-5,5ZM19,42h12c1.66,0,3-1.34,3-3v-12h-4.17c.11.32.16.66.17,1-.15,2.07-1.93,3.63-4,3.5-2.07.13-3.85-1.43-4-3.5,0-.34.06-.68.17-1h-3.17v3.97c0,.56-.31,1.08-.81,1.33-.48.26-1.07.22-1.52-.09-.2-.14-.43-.22-.67-.22-.81,0-1.5.92-1.5,2s.69,2,1.5,2c.24,0,.48-.08.67-.22.45-.31,1.03-.34,1.52-.09.5.26.81.77.81,1.34v4.97ZM2,27v12c0,1.66,1.34,3,3,3h12v-4.17c-.32.11-.66.16-1,.17-2.07-.15-3.63-1.93-3.5-4-.13-2.07,1.43-3.85,3.5-4,.34,0,.68.06,1,.17v-3.17h-3.97c-.56,0-1.08-.31-1.33-.81-.26-.48-.22-1.07.09-1.52.14-.2.22-.43.22-.67,0-.81-.92-1.5-2-1.5s-2,.69-2,1.5c0,.24.08.48.22.67.31.45.34,1.03.09,1.52-.26.5-.77.81-1.34.81H2ZM13.84,25h3.16v-3.97c0-.56.31-1.08.81-1.33.48-.26,1.07-.22,1.52.09.2.14.43.22.67.22.81,0,1.5-.92,1.5-2s-.69-2-1.5-2c-.24,0-.48.08-.67.22-.45.31-1.04.34-1.52.09-.5-.26-.81-.77-.81-1.33v-4.97H5c-1.66,0-3,1.34-3,3v12h4.16c-.11-.32-.16-.66-.16-1,.15-2.07,1.93-3.63,4-3.5,2.07-.13,3.85,1.43,4,3.5,0,.34-.06.68-.16,1Z"/>
    <path class="cls-1" d="M35.03,24.36c-.42,0-.84-.06-1.24-.19-.95-.28-1.72-.97-2.1-1.89-.13-.32-.2-.65-.22-.99l-3.86,1.56c-.51.21-1.09-.04-1.3-.55l-1.86-4.61c-.21-.52-.12-1.11.25-1.54.35-.42.91-.61,1.44-.49.23.06.48.04.7-.05.36-.16.63-.47.73-.85.29-1.06-.16-2.19-1.11-2.75-.34-.2-.75-.24-1.12-.11-.22.09-.41.25-.54.45-.3.46-.83.71-1.38.65-.56-.05-1.04-.41-1.25-.93l-2.23-5.54c-.21-.51.04-1.09.55-1.3L32.55.37c2.56-1.03,5.47.2,6.51,2.76h0s4.87,12.05,4.87,12.05c.21.51-.04,1.09-.55,1.3l-4.79,1.93c.22.26.4.55.53.87.63,1.97-.44,4.09-2.4,4.74-.53.22-1.1.33-1.68.33ZM32.03,19.02c.36,0,.7.13.98.36.42.35.61.91.49,1.44-.06.23-.04.48.05.7.16.36.47.63.85.73.52.15,1.07.12,1.56-.09.93-.26,1.49-1.2,1.29-2.14-.09-.22-.25-.41-.45-.54-.46-.3-.71-.83-.65-1.38.05-.56.41-1.04.94-1.25l4.61-1.86-4.5-11.12c-.62-1.53-2.37-2.27-3.9-1.66l-11.13,4.5,1.56,3.86c.26-.22.55-.4.87-.53.92-.36,1.95-.29,2.81.2,1.8,1.02,2.66,3.14,2.07,5.12-.28.95-.97,1.72-1.89,2.1-.31.13-.65.2-.99.22l1.19,2.93,3.68-1.49c.18-.08.37-.12.56-.12h0Z"/>
  </g>
</svg>